<svg xmlns="http://www.w3.org/2000/svg" xmlns:xlink="http://www.w3.org/1999/xlink" width="233" height="233" viewBox="0 0 233 233"><defs><style>.a{fill:#fff;stroke:#707070;}.b{clip-path:url(#a);}.c,.d,.f{fill:none;stroke:#f44;stroke-linejoin:round;}.c,.d{stroke-linecap:round;}.c,.f{stroke-width:4.01px;}.d{stroke-width:4.01px;}.e{fill:#f44;}</style><clipPath id="a"><rect class="a" width="233" height="233"/></clipPath></defs><g class="b"><g transform="translate(13.692 2.298)"><path class="c" d="M238.833,308.766a11.669,11.669,0,0,1-15.759,4.611l-50.646-28.11a11.629,11.629,0,0,1-4.611-15.759l62.635-114.564a11.629,11.629,0,0,1,15.8-4.571l50.806,28.07a11.589,11.589,0,0,1,4.611,15.759Z" transform="translate(-97.522 -86.414)"/><rect class="d" width="107.427" height="81.202" transform="matrix(0.481, -0.877, 0.877, 0.481, 75.69, 172.83)"/><line class="c" x2="2.526" y2="1.403" transform="translate(178.764 93.672)"/><line class="c" x2="16.361" y2="9.223" transform="translate(154.864 80.68)"/><path class="c" d="M201.66,150.734V183.9a8.02,8.02,0,0,1-8.02,8.02h-28.07v8.822a4.531,4.531,0,0,1-2.847,4.01,4.652,4.652,0,0,1-5.053-.962l-12.03-12.03h-40.1a8.02,8.02,0,0,1-8.02-8.02V122.063a8.02,8.02,0,0,1,8.02-8.02h43.067" transform="translate(-97.522 -86.414)"/><circle class="c" cx="27.669" cy="27.669" r="27.669" transform="translate(62.635)"/><line class="c" y2="13.834" transform="translate(90.304 11.509)"/><path class="e" d="M187.826,126.153a.6.6,0,1,1-.6.6.6.6,0,0,1,.6-.6m0-4.01a4.611,4.611,0,1,0,4.611,4.611,4.611,4.611,0,0,0-4.611-4.611Z" transform="translate(-97.522 -86.414)"/><line class="c" x2="43.829" transform="translate(18.807 55.337)"/><line class="c" x2="59.949" transform="translate(18.807 69.172)"/><line class="c" x2="59.949" transform="translate(18.807 83.006)"/><circle class="f" cx="2.326" cy="2.326" r="2.326" transform="translate(103.417 200.337)"/></g></g></svg>