<svg xmlns="http://www.w3.org/2000/svg" xmlns:xlink="http://www.w3.org/1999/xlink" width="100" height="100" viewBox="0 0 100 100"><defs><clipPath id="a"><rect width="100" height="100" transform="translate(112.593 148)" fill="#fff" stroke="#707070" stroke-width="1"/></clipPath></defs><g transform="translate(-112.593 -148)" clip-path="url(#a)"><g transform="translate(76.614 111.899)"><path d="M102.5,132.518A5.008,5.008,0,0,1,95.74,134.5L74,122.433a4.991,4.991,0,0,1-1.979-6.764L98.906,66.5a4.991,4.991,0,0,1,6.781-1.962l21.805,12.047a4.974,4.974,0,0,1,1.979,6.764Z" fill="none" stroke="#4550e5" stroke-linecap="round" stroke-linejoin="round" stroke-width="1.721"/><rect width="46.106" height="34.85" transform="matrix(0.481, -0.877, 0.877, 0.481, 74.34, 111.264)" stroke-width="1.721" stroke="#4550e5" stroke-linecap="round" stroke-linejoin="round" fill="none"/><line x2="1.084" y2="0.602" transform="translate(118.577 77.29)" stroke-width="1.721" stroke="#4550e5" stroke-linecap="round" stroke-linejoin="round" fill="none"/><line x2="7.022" y2="3.958" transform="translate(108.32 71.714)" stroke-width="1.721" stroke="#4550e5" stroke-linecap="round" stroke-linejoin="round" fill="none"/><path d="M86.549,64.693V78.925a3.442,3.442,0,0,1-3.442,3.442H71.06v3.786a1.945,1.945,0,0,1-1.222,1.721,2,2,0,0,1-2.168-.413L62.507,82.3H45.3a3.442,3.442,0,0,1-3.442-3.442V52.387A3.442,3.442,0,0,1,45.3,48.945H63.781" fill="none" stroke="#4550e5" stroke-linecap="round" stroke-linejoin="round" stroke-width="1.721"/><circle cx="11.875" cy="11.875" r="11.875" transform="translate(68.737 37.088)" fill="none" stroke="#4550e5" stroke-linecap="round" stroke-linejoin="round" stroke-width="1.721"/><line y2="5.937" transform="translate(80.612 42.027)" stroke-width="1.721" stroke="#4550e5" stroke-linecap="round" stroke-linejoin="round" fill="none"/><path d="M80.612,54.143a.258.258,0,1,1-.258.258.258.258,0,0,1,.258-.258m0-1.721A1.979,1.979,0,1,0,82.591,54.4a1.979,1.979,0,0,0-1.979-1.979Z" fill="#4550e5"/><line x2="18.811" transform="translate(49.926 60.838)" stroke-width="1.721" stroke="#4550e5" stroke-linecap="round" stroke-linejoin="round" fill="none"/><line x2="25.729" transform="translate(49.926 66.775)" stroke-width="1.721" stroke="#4550e5" stroke-linecap="round" stroke-linejoin="round" fill="none"/><line x2="25.729" transform="translate(49.926 72.713)" stroke-width="1.721" stroke="#4550e5" stroke-linecap="round" stroke-linejoin="round" fill="none"/><circle cx="0.998" cy="0.998" r="0.998" transform="translate(86.24 123.069)" fill="none" stroke="#4550e5" stroke-linejoin="round" stroke-width="1.721"/></g></g></svg>