<svg xmlns="http://www.w3.org/2000/svg" xmlns:xlink="http://www.w3.org/1999/xlink" width="160" height="160" viewBox="0 0 160 160"><defs><clipPath id="a"><rect width="160" height="160" transform="translate(761 439)" fill="#fff" stroke="#fff" stroke-width="1"/></clipPath></defs><g transform="translate(-761 -439)" clip-path="url(#a)"><g transform="translate(703.434 381.238)"><path d="M164.005,212.028a8.013,8.013,0,0,1-10.822,3.167l-34.778-19.3a7.985,7.985,0,0,1-3.167-10.822L158.25,106.4A7.985,7.985,0,0,1,169.1,103.26l34.888,19.275a7.958,7.958,0,0,1,3.167,10.822Z" fill="none" stroke="#fff" stroke-linecap="round" stroke-linejoin="round" stroke-width="2.754"/><rect width="73.769" height="55.761" transform="matrix(0.481, -0.877, 0.877, 0.481, 118.944, 178.022)" stroke-width="2.754" stroke="#fff" stroke-linecap="round" stroke-linejoin="round" fill="none"/><line x2="1.735" y2="0.964" transform="translate(189.724 123.665)" stroke-width="2.754" stroke="#fff" stroke-linecap="round" stroke-linejoin="round" fill="none"/><line x2="11.235" y2="6.333" transform="translate(173.312 114.743)" stroke-width="2.754" stroke="#fff" stroke-linecap="round" stroke-linejoin="round" fill="none"/><path d="M138.479,103.508v22.772a5.507,5.507,0,0,1-5.507,5.507H113.7v6.058a3.112,3.112,0,0,1-1.955,2.754,3.194,3.194,0,0,1-3.47-.661l-8.261-8.261H72.475a5.507,5.507,0,0,1-5.507-5.507V83.82a5.507,5.507,0,0,1,5.507-5.507h29.574" fill="none" stroke="#fff" stroke-linecap="round" stroke-linejoin="round" stroke-width="2.754"/><circle cx="19" cy="19" r="19" transform="translate(109.979 59.34)" fill="none" stroke="#fff" stroke-linecap="round" stroke-linejoin="round" stroke-width="2.754"/><line y2="9.5" transform="translate(128.979 67.243)" stroke-width="2.754" stroke="#fff" stroke-linecap="round" stroke-linejoin="round" fill="none"/><path d="M128.979,86.629a.413.413,0,1,1-.413.413.413.413,0,0,1,.413-.413m0-2.754a3.167,3.167,0,1,0,3.167,3.167A3.167,3.167,0,0,0,128.979,83.875Z" fill="#fff"/><line x2="30.097" transform="translate(79.882 97.34)" stroke-width="2.754" stroke="#fff" stroke-linecap="round" stroke-linejoin="round" fill="none"/><line x2="41.167" transform="translate(79.882 106.84)" stroke-width="2.754" stroke="#fff" stroke-linecap="round" stroke-linejoin="round" fill="none"/><line x2="41.167" transform="translate(79.882 116.34)" stroke-width="2.754" stroke="#fff" stroke-linecap="round" stroke-linejoin="round" fill="none"/><circle cx="1.597" cy="1.597" r="1.597" transform="translate(137.984 196.911)" fill="none" stroke="#fff" stroke-linejoin="round" stroke-width="2.754"/></g></g></svg>