<svg xmlns="http://www.w3.org/2000/svg" xmlns:xlink="http://www.w3.org/1999/xlink" width="100" height="100" viewBox="0 0 100 100"><defs><clipPath id="a"><rect width="100" height="100" transform="translate(88.593 155)" fill="#fff" stroke="#707070" stroke-width="1"/></clipPath></defs><g transform="translate(-88.593 -155)" clip-path="url(#a)"><g transform="translate(57.849 124.263)"><path d="M43.6,58.857H37.656a6.12,6.12,0,0,0-6.1,6.12v38.641a6.1,6.1,0,0,0,6.1,6.184h59a6.1,6.1,0,0,0,6.1-6.1" fill="none" stroke="#4550e5" stroke-linecap="round" stroke-linejoin="round" stroke-width="1.615"/><path d="M96.659,109.8a6.1,6.1,0,0,0,6.1-6.088v-2.131H31.552v2.051a6.088,6.088,0,0,0,6.1,6.168Z" fill="none" stroke="#4550e5" stroke-linecap="round" stroke-linejoin="round" stroke-width="1.615"/><path d="M73.261,117.876H61.053l1.017-8.154H72.244Z" fill="none" stroke="#4550e5" stroke-linecap="round" stroke-linejoin="round" stroke-width="1.615"/><path d="M80.382,121.929H53.932A4.069,4.069,0,0,1,58,117.876H76.313a4.069,4.069,0,0,1,4.069,4.053Z" fill="none" stroke="#4550e5" stroke-linecap="round" stroke-linejoin="round" stroke-width="1.615"/><path d="M106.832,86.34a4.1,4.1,0,0,1-4.069,4.085H51.9a4.085,4.085,0,0,1-4.069-4.069v-34.6h59Z" fill="none" stroke="#4550e5" stroke-linecap="round" stroke-linejoin="round" stroke-width="1.615"/><path d="M106.832,51.753h-59V43.6A4.069,4.069,0,0,1,51.9,39.545h50.864a4.085,4.085,0,0,1,4.069,4.053v8.074Z" fill="none" stroke="#4550e5" stroke-linecap="round" stroke-linejoin="round" stroke-width="1.615"/><path d="M53.932,43.6A2.051,2.051,0,1,1,51.9,45.633,2.051,2.051,0,0,1,53.932,43.6Z" fill="none" stroke="#4550e5" stroke-linecap="round" stroke-linejoin="round" stroke-width="1.615"/><path d="M62.071,43.6a2.051,2.051,0,1,1-2.035,2.035A2.051,2.051,0,0,1,62.071,43.6Z" fill="none" stroke="#4550e5" stroke-linecap="round" stroke-linejoin="round" stroke-width="1.615"/><path d="M70.209,43.6a2.051,2.051,0,1,1-2.035,2.035A2.051,2.051,0,0,1,70.209,43.6Z" fill="none" stroke="#4550e5" stroke-linecap="round" stroke-linejoin="round" stroke-width="1.615"/><path d="M74.278,70.4a1.712,1.712,0,0,1-1.615,1.615H67.819A1.712,1.712,0,0,1,66.2,70.4V65.559a1.615,1.615,0,0,1,1.615-1.615h4.844a1.615,1.615,0,0,1,1.615,1.615Z" fill="none" stroke="#4550e5" stroke-linecap="round" stroke-linejoin="round" stroke-width="1.615"/><path d="M87.5,70.4a1.712,1.712,0,0,1-1.615,1.615H81.06a1.712,1.712,0,0,1-1.7-1.615V65.559a1.615,1.615,0,0,1,1.7-1.615h4.747a1.615,1.615,0,0,1,1.615,1.615Z" fill="none" stroke="#4550e5" stroke-linecap="round" stroke-linejoin="round" stroke-width="1.615"/><path d="M100.728,70.4a1.712,1.712,0,0,1-1.7,1.615H94.285A1.712,1.712,0,0,1,92.67,70.4V65.559a1.615,1.615,0,0,1,1.615-1.615h4.747a1.615,1.615,0,0,1,1.7,1.615Z" fill="none" stroke="#4550e5" stroke-linecap="round" stroke-linejoin="round" stroke-width="1.615"/><path d="M74.278,82.594a1.615,1.615,0,0,1-1.615,1.7H67.819a1.615,1.615,0,0,1-1.615-1.7V77.863a1.712,1.712,0,0,1,1.615-1.712h4.844a1.712,1.712,0,0,1,1.615,1.712Z" fill="none" stroke="#4550e5" stroke-linecap="round" stroke-linejoin="round" stroke-width="1.615"/><path d="M87.5,82.594a1.615,1.615,0,0,1-1.615,1.7H81.06a1.615,1.615,0,0,1-1.7-1.7V77.863a1.712,1.712,0,0,1,1.7-1.712h4.747a1.712,1.712,0,0,1,1.615,1.712Z" fill="none" stroke="#4550e5" stroke-linecap="round" stroke-linejoin="round" stroke-width="1.615"/><path d="M100.728,82.594a1.615,1.615,0,0,1-1.7,1.7H94.285a1.615,1.615,0,0,1-1.615-1.7V77.863a1.712,1.712,0,0,1,1.615-1.712h4.747a1.712,1.712,0,0,1,1.7,1.712Z" fill="none" stroke="#4550e5" stroke-linecap="round" stroke-linejoin="round" stroke-width="1.615"/><path d="M62.071,58.131a1.615,1.615,0,0,1-1.615,1.615H55.628a1.615,1.615,0,0,1-1.7-1.615v-.678a1.615,1.615,0,0,1,1.7-1.615h4.747a1.615,1.615,0,0,1,1.615,1.615Z" fill="none" stroke="#4550e5" stroke-linecap="round" stroke-linejoin="round" stroke-width="1.615"/><path d="M100.728,58.131a1.615,1.615,0,0,1-1.7,1.615H67.819A1.615,1.615,0,0,1,66.2,58.131v-.678a1.615,1.615,0,0,1,1.615-1.615H99.032a1.615,1.615,0,0,1,1.7,1.615Z" fill="none" stroke="#4550e5" stroke-linecap="round" stroke-linejoin="round" stroke-width="1.615"/><line x2="8.138" transform="translate(53.932 63.944)" stroke-width="1.615" stroke="#4550e5" stroke-linecap="round" stroke-linejoin="round" fill="none"/><line x2="8.138" transform="translate(53.932 68.029)" stroke-width="1.615" stroke="#4550e5" stroke-linecap="round" stroke-linejoin="round" fill="none"/><line x2="8.138" transform="translate(53.932 72.098)" stroke-width="1.615" stroke="#4550e5" stroke-linecap="round" stroke-linejoin="round" fill="none"/><line x2="8.138" transform="translate(53.932 76.151)" stroke-width="1.615" stroke="#4550e5" stroke-linecap="round" stroke-linejoin="round" fill="none"/><line x2="8.138" transform="translate(53.932 80.221)" stroke-width="1.615" stroke="#4550e5" stroke-linecap="round" stroke-linejoin="round" fill="none"/><line x2="5.086" transform="translate(53.932 84.29)" stroke-width="1.615" stroke="#4550e5" stroke-linecap="round" stroke-linejoin="round" fill="none"/><path d="M120.056,106.573c-.291,1.082-.888,1.13-1.324.1l-6.669-16.034c-.42-1.033,0-1.615,1.1-1.1l16.018,6.669c1.033.436.985,1.033,0,1.324l-5.135,1.4a3.956,3.956,0,0,0-2.5,2.487Z" fill="none" stroke="#4550e5" stroke-linecap="round" stroke-linejoin="round" stroke-width="1.615"/><circle cx="0.84" cy="0.84" r="0.84" transform="translate(66.318 104.829)" fill="none" stroke="#4550e5" stroke-linecap="round" stroke-linejoin="round" stroke-width="1.615"/><path d="M102.762,103.618V94.64" fill="none" stroke="#4550e5" stroke-linecap="round" stroke-linejoin="round" stroke-width="1.615"/></g></g></svg>