<svg xmlns="http://www.w3.org/2000/svg" xmlns:xlink="http://www.w3.org/1999/xlink" width="160" height="160" viewBox="0 0 160 160"><defs><clipPath id="a"><rect width="160" height="160" transform="translate(741 433)" fill="#fff" stroke="#fff" stroke-width="1"/></clipPath></defs><g transform="translate(-741 -433)" clip-path="url(#a)"><g transform="translate(691.81 383.82)"><path d="M69.757,94.172H60.249a9.792,9.792,0,0,0-9.766,9.792v61.825a9.766,9.766,0,0,0,9.766,9.9h94.4a9.766,9.766,0,0,0,9.766-9.766" fill="none" stroke="#fff" stroke-linecap="round" stroke-linejoin="round" stroke-width="2.584"/><path d="M154.654,175.684a9.766,9.766,0,0,0,9.766-9.74v-3.41H50.483v3.281a9.74,9.74,0,0,0,9.766,9.869Z" fill="none" stroke="#fff" stroke-linecap="round" stroke-linejoin="round" stroke-width="2.584"/><path d="M117.218,188.6H97.686l1.628-13.047H115.59Z" fill="none" stroke="#fff" stroke-linecap="round" stroke-linejoin="round" stroke-width="2.584"/><path d="M128.611,195.087H86.292A6.511,6.511,0,0,1,92.8,188.6h29.3a6.511,6.511,0,0,1,6.511,6.485Z" fill="none" stroke="#fff" stroke-linecap="round" stroke-linejoin="round" stroke-width="2.584"/><path d="M170.93,138.145a6.562,6.562,0,0,1-6.511,6.536H83.037a6.536,6.536,0,0,1-6.511-6.511V82.8h94.4Z" fill="none" stroke="#fff" stroke-linecap="round" stroke-linejoin="round" stroke-width="2.584"/><path d="M170.93,82.8h-94.4V69.757a6.511,6.511,0,0,1,6.511-6.485H164.42a6.536,6.536,0,0,1,6.511,6.485V82.8Z" fill="none" stroke="#fff" stroke-linecap="round" stroke-linejoin="round" stroke-width="2.584"/><path d="M86.292,69.757a3.281,3.281,0,1,1-3.255,3.255A3.281,3.281,0,0,1,86.292,69.757Z" fill="none" stroke="#fff" stroke-linecap="round" stroke-linejoin="round" stroke-width="2.584"/><path d="M99.313,69.757a3.281,3.281,0,1,1-3.255,3.255A3.281,3.281,0,0,1,99.313,69.757Z" fill="none" stroke="#fff" stroke-linecap="round" stroke-linejoin="round" stroke-width="2.584"/><path d="M112.335,69.757a3.281,3.281,0,1,1-3.255,3.255,3.281,3.281,0,0,1,3.255-3.255Z" fill="none" stroke="#fff" stroke-linecap="round" stroke-linejoin="round" stroke-width="2.584"/><path d="M118.845,112.645a2.739,2.739,0,0,1-2.584,2.584h-7.751a2.739,2.739,0,0,1-2.584-2.584v-7.751a2.584,2.584,0,0,1,2.584-2.584h7.751a2.584,2.584,0,0,1,2.584,2.584Z" fill="none" stroke="#fff" stroke-linecap="round" stroke-linejoin="round" stroke-width="2.584"/><path d="M140,112.645a2.739,2.739,0,0,1-2.584,2.584H129.7a2.739,2.739,0,0,1-2.713-2.584v-7.751a2.584,2.584,0,0,1,2.713-2.584h7.6a2.584,2.584,0,0,1,2.584,2.584Z" fill="none" stroke="#fff" stroke-linecap="round" stroke-linejoin="round" stroke-width="2.584"/><path d="M161.164,112.645a2.739,2.739,0,0,1-2.713,2.584h-7.6a2.739,2.739,0,0,1-2.584-2.584v-7.751a2.584,2.584,0,0,1,2.584-2.584h7.6a2.584,2.584,0,0,1,2.713,2.584Z" fill="none" stroke="#fff" stroke-linecap="round" stroke-linejoin="round" stroke-width="2.584"/><path d="M118.845,132.151a2.584,2.584,0,0,1-2.584,2.713h-7.751a2.584,2.584,0,0,1-2.584-2.713v-7.57a2.739,2.739,0,0,1,2.584-2.739h7.751a2.739,2.739,0,0,1,2.584,2.739Z" fill="none" stroke="#fff" stroke-linecap="round" stroke-linejoin="round" stroke-width="2.584"/><path d="M140,132.151a2.584,2.584,0,0,1-2.584,2.713H129.7a2.584,2.584,0,0,1-2.713-2.713v-7.57a2.739,2.739,0,0,1,2.713-2.739h7.6a2.739,2.739,0,0,1,2.584,2.739Z" fill="none" stroke="#fff" stroke-linecap="round" stroke-linejoin="round" stroke-width="2.584"/><path d="M161.164,132.151a2.584,2.584,0,0,1-2.713,2.713h-7.6a2.584,2.584,0,0,1-2.584-2.713v-7.57a2.739,2.739,0,0,1,2.584-2.739h7.6a2.739,2.739,0,0,1,2.713,2.739Z" fill="none" stroke="#fff" stroke-linecap="round" stroke-linejoin="round" stroke-width="2.584"/><path d="M99.313,93.009a2.584,2.584,0,0,1-2.584,2.584H89a2.584,2.584,0,0,1-2.713-2.584V91.924A2.584,2.584,0,0,1,89,89.341h7.6a2.584,2.584,0,0,1,2.584,2.584Z" fill="none" stroke="#fff" stroke-linecap="round" stroke-linejoin="round" stroke-width="2.584"/><path d="M161.164,93.009a2.584,2.584,0,0,1-2.713,2.584H108.511a2.584,2.584,0,0,1-2.584-2.584V91.924a2.584,2.584,0,0,1,2.584-2.584h49.941a2.584,2.584,0,0,1,2.713,2.584Z" fill="none" stroke="#fff" stroke-linecap="round" stroke-linejoin="round" stroke-width="2.584"/><line x2="13.021" transform="translate(86.292 102.31)" stroke-width="2.584" stroke="#fff" stroke-linecap="round" stroke-linejoin="round" fill="none"/><line x2="13.021" transform="translate(86.292 108.847)" stroke-width="2.584" stroke="#fff" stroke-linecap="round" stroke-linejoin="round" fill="none"/><line x2="13.021" transform="translate(86.292 115.357)" stroke-width="2.584" stroke="#fff" stroke-linecap="round" stroke-linejoin="round" fill="none"/><line x2="13.021" transform="translate(86.292 121.842)" stroke-width="2.584" stroke="#fff" stroke-linecap="round" stroke-linejoin="round" fill="none"/><line x2="13.021" transform="translate(86.292 128.353)" stroke-width="2.584" stroke="#fff" stroke-linecap="round" stroke-linejoin="round" fill="none"/><line x2="8.138" transform="translate(86.292 134.863)" stroke-width="2.584" stroke="#fff" stroke-linecap="round" stroke-linejoin="round" fill="none"/><path d="M192.09,170.517c-.465,1.731-1.421,1.809-2.119.155L179.3,145.017c-.672-1.654,0-2.584,1.757-1.757l25.629,10.67c1.654.7,1.576,1.653,0,2.119l-8.216,2.248a6.33,6.33,0,0,0-4,3.979Z" fill="none" stroke="#fff" stroke-linecap="round" stroke-linejoin="round" stroke-width="2.584"/><circle cx="1.343" cy="1.343" r="1.343" transform="translate(106.108 167.727)" fill="none" stroke="#fff" stroke-linecap="round" stroke-linejoin="round" stroke-width="2.584"/><path d="M164.42,165.789V151.424" fill="none" stroke="#fff" stroke-linecap="round" stroke-linejoin="round" stroke-width="2.584"/></g></g></svg>